0
SECTION
2
HEADER
9
$INSUNITS
70
4
9
$ACADVER
1
AC1014
9
$HANDSEED
5
FFFF
0
ENDSEC
0
SECTION
2
TABLES
0
TABLE
2
VPORT
5
8
100
AcDbSymbolTable
0
ENDTAB
0
TABLE
2
LTYPE
5
5
100
AcDbSymbolTable
0
LTYPE
5
14
100
AcDbSymbolTableRecord
100
AcDbLinetypeTableRecord
2
BYBLOCK
70
0
0
LTYPE
5
15
100
AcDbSymbolTableRecord
100
AcDbLinetypeTableRecord
2
BYLAYER
70
0
0
ENDTAB
0
TABLE
2
LAYER
5
2
100
AcDbSymbolTable
70
2
0
LAYER
5
50
100
AcDbSymbolTableRecord
100
AcDbLayerTableRecord
2
0
70
0
6
CONTINUOUS
0
ENDTAB
0
TABLE
2
STYLE
5
3
100
AcDbSymbolTable
70
1
0
STYLE
5
11
100
AcDbSymbolTableRecord
100
AcDbTextStyleTableRecord
2
STANDARD
70
0
0
ENDTAB
0
TABLE
2
VIEW
5
6
100
AcDbSymbolTable
70
0
0
ENDTAB
0
TABLE
2
UCS
5
7
100
AcDbSymbolTable
70
0
0
ENDTAB
0
TABLE
2
APPID
5
9
100
AcDbSymbolTable
70
2
0
APPID
5
12
100
AcDbSymbolTableRecord
100
AcDbRegAppTableRecord
2
ACAD
70
0
0
ENDTAB
0
TABLE
2
DIMSTYLE
5
A
100
AcDbSymbolTable
70
1
0
ENDTAB
0
TABLE
2
BLOCK_RECORD
5
1
100
AcDbSymbolTable
70
1
0
BLOCK_RECORD
5
1F
100
AcDbSymbolTableRecord
100
AcDbBlockTableRecord
2
*MODEL_SPACE
0
BLOCK_RECORD
5
1B
100
AcDbSymbolTableRecord
100
AcDbBlockTableRecord
2
*PAPER_SPACE
0
ENDTAB
0
ENDSEC
0
SECTION
2
BLOCKS
0
BLOCK
5
20
100
AcDbEntity
100
AcDbBlockBegin
2
*MODEL_SPACE
0
ENDBLK
5
21
100
AcDbEntity
100
AcDbBlockEnd
0
BLOCK
5
1C
100
AcDbEntity
100
AcDbBlockBegin
2
*PAPER_SPACE
0
ENDBLK
5
1D
100
AcDbEntity
100
AcDbBlockEnd
0
ENDSEC
0
SECTION
2
ENTITIES
0
CIRCLE
5
100
100
AcDbEntity
8
0
100
AcDbCircle
10
27.890376661456564
20
74.313642857029137
30
0
40
1.190625
210
-1.7272337110188889e-77
220
-8.7581154020301086e-47
230
1
0
CIRCLE
5
101
100
AcDbEntity
8
0
100
AcDbCircle
10
52.223886371464687
20
59.775047614036623
30
0
40
1.190625
210
-1.7272337110188889e-77
220
-8.7581154020301086e-47
230
1
0
CIRCLE
5
102
100
AcDbEntity
8
0
100
AcDbCircle
10
69.897270341128575
20
37.613325083794273
30
0
40
1.190625
210
-1.7272337110188889e-77
220
-8.7581154020301086e-47
230
1
0
CIRCLE
5
103
100
AcDbEntity
8
0
100
AcDbCircle
10
78.656637340329823
20
10.654765474276411
30
0
40
1.190625
210
-1.7272337110188889e-77
220
-8.7581154020301086e-47
230
1
0
CIRCLE
5
104
100
AcDbEntity
8
0
100
AcDbCircle
10
77.384903029432252
20
-17.662599132782464
30
-7.8886090522101181e-30
40
1.190625
210
-1.7272337110188889e-77
220
-8.7581154020301086e-47
230
1
0
CIRCLE
5
105
100
AcDbEntity
8
0
100
AcDbCircle
10
66.244252014128392
20
-43.727447902760652
30
7.8886090522101181e-30
40
1.190625
210
-1.7272337110188889e-77
220
-8.7581154020301086e-47
230
1
0
CIRCLE
5
106
100
AcDbEntity
8
0
100
AcDbCircle
10
46.655454400715037
20
-64.215723928511451
30
0
40
1.190625
210
-1.7272337110188889e-77
220
-8.7581154020301086e-47
230
1
0
CIRCLE
5
107
100
AcDbEntity
8
0
100
AcDbCircle
10
21.116674616854809
20
-76.514552067733348
30
7.8886090522101181e-30
40
1.190625
210
-1.7272337110188889e-77
220
-8.7581154020301086e-47
230
1
0
CIRCLE
5
108
100
AcDbEntity
8
0
100
AcDbCircle
10
-7.1151201442100707
20
-79.055459585872086
30
-7.8886090522101181e-30
40
1.190625
210
-1.7272337110188889e-77
220
-8.7581154020301086e-47
230
1
0
CIRCLE
5
109
100
AcDbEntity
8
0
100
AcDbCircle
10
-34.439521792456212
20
-71.514403889754476
30
7.8886090522101181e-30
40
1.190625
210
-1.7272337110188889e-77
220
-8.7581154020301086e-47
230
1
0
CIRCLE
5
110
100
AcDbEntity
8
0
100
AcDbCircle
10
-57.371842316299222
20
-54.85309776333235
30
0
40
1.190625
210
-1.7272337110188889e-77
220
-8.7581154020301086e-47
230
1
0
CIRCLE
5
111
100
AcDbEntity
8
0
100
AcDbCircle
10
-72.987516946271398
20
-31.196361887530163
30
0
40
1.190625
210
-1.7272337110188889e-77
220
-8.7581154020301086e-47
230
1
0
CIRCLE
5
112
100
AcDbEntity
8
0
100
AcDbCircle
10
-79.295074656716864
20
-3.5611459090721032
30
0
40
1.190625
210
-1.7272337110188889e-77
220
-8.7581154020301086e-47
230
1
0
CIRCLE
5
113
100
AcDbEntity
8
0
100
AcDbCircle
10
-75.49011098092781
20
24.528223928511466
30
0
40
1.190625
210
-1.7272337110188889e-77
220
-8.7581154020301086e-47
230
1
0
CIRCLE
5
114
100
AcDbEntity
8
0
100
AcDbCircle
10
-62.057873920899866
20
49.489503022536987
30
0
40
1.190625
210
-1.7272337110188889e-77
220
-8.7581154020301086e-47
230
1
0
CIRCLE
5
115
100
AcDbEntity
8
0
100
AcDbCircle
10
-40.711380144093809
20
68.139372992148125
30
0
40
1.190625
210
-1.7272337110188889e-77
220
-8.7581154020301086e-47
230
1
0
CIRCLE
5
116
100
AcDbEntity
8
0
100
AcDbCircle
10
-14.172953524641791
20
78.099411095016237
30
0
40
1.190625
210
-1.7272337110188889e-77
220
-8.7581154020301086e-47
230
1
0
CIRCLE
5
117
100
AcDbEntity
8
0
100
AcDbCircle
10
-8.8817841970012208e-15
20
79.375
30
0
40
1.190625
210
-1.7272337110188889e-77
220
-8.7581154020301086e-47
230
1
0
CIRCLE
5
118
100
AcDbEntity
8
0
100
AcDbCircle
10
-27.890376661456582
20
74.313642857029137
30
0
40
1.190625
210
-1.7272337110188889e-77
220
-8.7581154020301086e-47
230
1
0
CIRCLE
5
119
100
AcDbEntity
8
0
100
AcDbCircle
10
-52.223886371464687
20
59.775047614036623
30
0
40
1.190625
210
-1.7272337110188889e-77
220
-8.7581154020301086e-47
230
1
0
CIRCLE
5
120
100
AcDbEntity
8
0
100
AcDbCircle
10
-69.897270341128575
20
37.613325083794273
30
0
40
1.190625
210
-1.7272337110188889e-77
220
-8.7581154020301086e-47
230
1
0
CIRCLE
5
121
100
AcDbEntity
8
0
100
AcDbCircle
10
-78.656637340329823
20
10.65476547427642
30
0
40
1.190625
210
-1.7272337110188889e-77
220
-8.7581154020301086e-47
230
1
0
CIRCLE
5
122
100
AcDbEntity
8
0
100
AcDbCircle
10
-77.384903029432252
20
-17.662599132782436
30
-7.8886090522101181e-30
40
1.190625
210
-1.7272337110188889e-77
220
-8.7581154020301086e-47
230
1
0
CIRCLE
5
123
100
AcDbEntity
8
0
100
AcDbCircle
10
-66.244252014128406
20
-43.727447902760602
30
7.8886090522101181e-30
40
1.190625
210
-1.7272337110188889e-77
220
-8.7581154020301086e-47
230
1
0
CIRCLE
5
124
100
AcDbEntity
8
0
100
AcDbCircle
10
-46.655454400715087
20
-64.215723928511409
30
0
40
1.190625
210
-1.7272337110188889e-77
220
-8.7581154020301086e-47
230
1
0
CIRCLE
5
125
100
AcDbEntity
8
0
100
AcDbCircle
10
-21.11667461685488
20
-76.514552067733334
30
7.8886090522101181e-30
40
1.190625
210
-1.7272337110188889e-77
220
-8.7581154020301086e-47
230
1
0
CIRCLE
5
126
100
AcDbEntity
8
0
100
AcDbCircle
10
7.1151201442099996
20
-79.055459585872086
30
-7.8886090522101181e-30
40
1.190625
210
-1.7272337110188889e-77
220
-8.7581154020301086e-47
230
1
0
CIRCLE
5
127
100
AcDbEntity
8
0
100
AcDbCircle
10
34.439521792456148
20
-71.514403889754504
30
7.8886090522101181e-30
40
1.190625
210
-1.7272337110188889e-77
220
-8.7581154020301086e-47
230
1
0
CIRCLE
5
128
100
AcDbEntity
8
0
100
AcDbCircle
10
57.371842316299187
20
-54.853097763332393
30
0
40
1.190625
210
-1.7272337110188889e-77
220
-8.7581154020301086e-47
230
1
0
CIRCLE
5
129
100
AcDbEntity
8
0
100
AcDbCircle
10
72.987516946271398
20
-31.196361887530195
30
0
40
1.190625
210
-1.7272337110188889e-77
220
-8.7581154020301086e-47
230
1
0
CIRCLE
5
130
100
AcDbEntity
8
0
100
AcDbCircle
10
79.295074656716864
20
-3.5611459090721325
30
0
40
1.190625
210
-1.7272337110188889e-77
220
-8.7581154020301086e-47
230
1
0
CIRCLE
5
131
100
AcDbEntity
8
0
100
AcDbCircle
10
75.49011098092781
20
24.528223928511462
30
0
40
1.190625
210
-1.7272337110188889e-77
220
-8.7581154020301086e-47
230
1
0
CIRCLE
5
132
100
AcDbEntity
8
0
100
AcDbCircle
10
62.057873920899866
20
49.489503022536987
30
0
40
1.190625
210
-1.7272337110188889e-77
220
-8.7581154020301086e-47
230
1
0
CIRCLE
5
133
100
AcDbEntity
8
0
100
AcDbCircle
10
40.711380144093788
20
68.139372992148125
30
0
40
1.190625
210
-1.7272337110188889e-77
220
-8.7581154020301086e-47
230
1
0
CIRCLE
5
134
100
AcDbEntity
8
0
100
AcDbCircle
10
14.172953524641773
20
78.099411095016237
30
0
40
1.190625
210
-1.7272337110188889e-77
220
-8.7581154020301086e-47
230
1
0
CIRCLE
5
135
100
AcDbEntity
8
0
100
AcDbCircle
10
-8.8817841970012523e-15
20
1.332267629550188e-14
30
0
40
3.3734375000000001
210
-1.7272337110188889e-77
220
-8.7581154020301086e-47
230
1
0
CIRCLE
5
136
100
AcDbEntity
8
0
100
AcDbCircle
10
-8.8817841970011955e-15
20
144.46249999999998
30
0
40
6.1685169999999996
210
-1.7272337110188889e-77
220
-8.7581154020301086e-47
230
1
0
CIRCLE
5
137
100
AcDbEntity
8
0
100
AcDbCircle
10
-8.8817841970012018e-15
20
128.15671599999999
30
0
40
6.1685169999999996
210
-1.7272337110188889e-77
220
-8.7581154020301086e-47
230
1
0
CIRCLE
5
138
100
AcDbEntity
8
0
100
AcDbCircle
10
-8.8817841970012081e-15
20
111.85093200000003
30
0
40
6.1685169999999996
210
-1.7272337110188889e-77
220
-8.7581154020301086e-47
230
1
0
CIRCLE
5
139
100
AcDbEntity
8
0
100
AcDbCircle
10
-8.8817841970012145e-15
20
95.54514800000004
30
0
40
6.1685169999999996
210
-1.7272337110188889e-77
220
-8.7581154020301086e-47
230
1
0
CIRCLE
5
140
100
AcDbEntity
8
0
100
AcDbCircle
10
-25.794775414848058
20
142.14092819292952
30
0
40
6.1685169999999996
210
-1.7272337110188889e-77
220
-8.7581154020301086e-47
230
1
0
CIRCLE
5
141
100
AcDbEntity
8
0
100
AcDbCircle
10
-22.883265256550764
20
126.09718485003143
30
0
40
6.1685169999999996
210
-1.7272337110188889e-77
220
-8.7581154020301086e-47
230
1
0
CIRCLE
5
142
100
AcDbEntity
8
0
100
AcDbCircle
10
-19.971755098253475
20
110.05344150713333
30
0
40
6.1685169999999996
210
-1.7272337110188889e-77
220
-8.7581154020301086e-47
230
1
0
CIRCLE
5
143
100
AcDbEntity
8
0
100
AcDbCircle
10
-17.060244939956185
20
94.009698164235232
30
0
40
6.1685169999999996
210
-1.7272337110188889e-77
220
-8.7581154020301086e-47
230
1
0
CIRCLE
5
144
100
AcDbEntity
8
0
100
AcDbCircle
10
-50.760485523850974
20
135.25082999979301
30
0
40
6.1685169999999996
210
-1.7272337110188889e-77
220
-8.7581154020301086e-47
230
1
0
CIRCLE
5
145
100
AcDbEntity
8
0
100
AcDbCircle
10
-45.031043539342612
20
119.98478642587357
30
0
40
6.1685169999999996
210
-1.7272337110188889e-77
220
-8.7581154020301086e-47
230
1
0
CIRCLE
5
146
100
AcDbEntity
8
0
100
AcDbCircle
10
-39.301601554834242
20
104.71874285195406
30
0
40
6.1685169999999996
210
-1.7272337110188889e-77
220
-8.7581154020301086e-47
230
1
0
CIRCLE
5
147
100
AcDbEntity
8
0
100
AcDbCircle
10
-33.572159570325873
20
89.452699278034572
30
0
40
6.1685169999999996
210
-1.7272337110188889e-77
220
-8.7581154020301086e-47
230
1
0
CIRCLE
5
148
100
AcDbEntity
8
0
100
AcDbCircle
10
-74.094711862250733
20
124.01365884570957
30
0
40
6.1685169999999996
210
-1.7272337110188889e-77
220
-8.7581154020301086e-47
230
1
0
CIRCLE
5
149
100
AcDbEntity
8
0
100
AcDbCircle
10
-65.731487031113943
20
110.01597824217698
30
0
40
6.1685169999999996
210
-1.7272337110188889e-77
220
-8.7581154020301086e-47
230
1
0
CIRCLE
5
150
100
AcDbEntity
8
0
100
AcDbCircle
10
-57.368262199977167
20
96.018297638644384
30
0
40
6.1685169999999996
210
-1.7272337110188889e-77
220
-8.7581154020301086e-47
230
1
0
CIRCLE
5
151
100
AcDbEntity
8
0
100
AcDbCircle
10
-49.005037368840391
20
82.020617035111769
30
0
40
6.1685169999999996
210
-1.7272337110188889e-77
220
-8.7581154020301086e-47
230
1
0
CIRCLE
5
152
100
AcDbEntity
8
0
100
AcDbCircle
10
-95.047473196065766
20
108.79058665754667
30
0
40
6.1685169999999996
210
-1.7272337110188889e-77
220
-8.7581154020301086e-47
230
1
0
CIRCLE
5
153
100
AcDbEntity
8
0
100
AcDbCircle
10
-84.319266445657604
20
96.511165996328444
30
0
40
6.1685169999999996
210
-1.7272337110188889e-77
220
-8.7581154020301086e-47
230
1
0
CIRCLE
5
154
100
AcDbEntity
8
0
100
AcDbCircle
10
-73.591059695249456
20
84.231745335110219
30
0
40
6.1685169999999996
210
-1.7272337110188889e-77
220
-8.7581154020301086e-47
230
1
0
CIRCLE
5
155
100
AcDbEntity
8
0
100
AcDbCircle
10
-62.862852944841308
20
71.952324673892008
30
0
40
6.1685169999999996
210
-1.7272337110188889e-77
220
-8.7581154020301086e-47
230
1
0
CIRCLE
5
156
100
AcDbEntity
8
0
100
AcDbCircle
10
-112.94533053603779
20
90.070895501017304
30
0
40
6.1685169999999996
210
-1.7272337110188889e-77
220
-8.7581154020301086e-47
230
1
0
CIRCLE
5
157
100
AcDbEntity
8
0
100
AcDbCircle
10
-100.19695525851429
20
79.904405465706006
30
0
40
6.1685169999999996
210
-1.7272337110188889e-77
220
-8.7581154020301086e-47
230
1
0
CIRCLE
5
158
100
AcDbEntity
8
0
100
AcDbCircle
10
-87.448579980990814
20
69.737915430394693
30
0
40
6.1685169999999996
210
-1.7272337110188889e-77
220
-8.7581154020301086e-47
230
1
0
CIRCLE
5
159
100
AcDbEntity
8
0
100
AcDbCircle
10
-74.70020470346735
20
59.571425395083402
30
0
40
6.1685169999999996
210
-1.7272337110188889e-77
220
-8.7581154020301086e-47
230
1
0
CIRCLE
5
160
100
AcDbEntity
8
0
100
AcDbCircle
10
-127.21303202085402
20
68.456251652505586
30
0
40
6.1685169999999996
210
-1.7272337110188889e-77
220
-8.7581154020301086e-47
230
1
0
CIRCLE
5
161
100
AcDbEntity
8
0
100
AcDbCircle
10
-112.85423148703295
20
60.729451597851956
30
0
40
6.1685169999999996
210
-1.7272337110188889e-77
220
-8.7581154020301086e-47
230
1
0
CIRCLE
5
162
100
AcDbEntity
8
0
100
AcDbCircle
10
-98.49543095321188
20
53.002651543198347
30
0
40
6.1685169999999996
210
-1.7272337110188889e-77
220
-8.7581154020301086e-47
230
1
0
CIRCLE
5
163
100
AcDbEntity
8
0
100
AcDbCircle
10
-84.136630419390769
20
45.275851488544731
30
0
40
6.1685169999999996
210
-1.7272337110188889e-77
220
-8.7581154020301086e-47
230
1
0
CIRCLE
5
164
100
AcDbEntity
8
0
100
AcDbCircle
10
-137.39200198528863
20
44.641367549890852
30
0
40
6.1685169999999996
210
-1.7272337110188889e-77
220
-8.7581154020301086e-47
230
1
0
CIRCLE
5
165
100
AcDbEntity
8
0
100
AcDbCircle
10
-121.88427985878739
20
39.602603187283748
30
0
40
6.1685169999999996
210
-1.7272337110188889e-77
220
-8.7581154020301086e-47
230
1
0
CIRCLE
5
166
100
AcDbEntity
8
0
100
AcDbCircle
10
-106.37655773228616
20
34.563838824676637
30
0
40
6.1685169999999996
210
-1.7272337110188889e-77
220
-8.7581154020301086e-47
230
1
0
CIRCLE
5
167
100
AcDbEntity
8
0
100
AcDbCircle
10
-90.868835605784881
20
29.525074462069544
30
0
40
6.1685169999999996
210
-1.7272337110188889e-77
220
-8.7581154020301086e-47
230
1
0
CIRCLE
5
168
100
AcDbEntity
8
0
100
AcDbCircle
10
-143.15507995940027
20
19.391673163183075
30
0
40
6.1685169999999996
210
-1.7272337110188889e-77
220
-8.7581154020301086e-47
230
1
0
CIRCLE
5
169
100
AcDbEntity
8
0
100
AcDbCircle
10
-126.99686718916087
20
17.202894525145801
30
0
40
6.1685169999999996
210
-1.7272337110188889e-77
220
-8.7581154020301086e-47
230
1
0
CIRCLE
5
170
100
AcDbEntity
8
0
100
AcDbCircle
10
-110.83865441892151
20
15.014115887108527
30
0
40
6.1685169999999996
210
-1.7272337110188889e-77
220
-8.7581154020301086e-47
230
1
0
CIRCLE
5
171
100
AcDbEntity
8
0
100
AcDbCircle
10
-94.680441648682105
20
12.825337249071255
30
0
40
6.1685169999999996
210
-1.7272337110188889e-77
220
-8.7581154020301086e-47
230
1
0
CIRCLE
5
172
100
AcDbEntity
8
0
100
AcDbCircle
10
-144.31703587522469
20
-6.4812855545112393
30
0
40
6.1685169999999996
210
-1.7272337110188889e-77
220
-8.7581154020301086e-47
230
1
0
CIRCLE
5
173
100
AcDbEntity
8
0
100
AcDbCircle
10
-128.02767071470441
20
-5.7497293216191006
30
0
40
6.1685169999999996
210
-1.7272337110188889e-77
220
-8.7581154020301086e-47
230
1
0
CIRCLE
5
174
100
AcDbEntity
8
0
100
AcDbCircle
10
-111.73830555418408
20
-5.0181730887269609
30
0
40
6.1685169999999996
210
-1.7272337110188889e-77
220
-8.7581154020301086e-47
230
1
0
CIRCLE
5
175
100
AcDbEntity
8
0
100
AcDbCircle
10
-95.448940393663804
20
-4.2866168558348212
30
0
40
6.1685169999999996
210
-1.7272337110188889e-77
220
-8.7581154020301086e-47
230
1
0
CIRCLE
5
176
100
AcDbEntity
8
0
100
AcDbCircle
10
-140.84052351356672
20
-32.14593042166404
30
0
40
6.1685169999999996
210
-1.7272337110188889e-77
220
-8.7581154020301086e-47
230
1
0
CIRCLE
5
177
100
AcDbEntity
8
0
100
AcDbCircle
10
-124.94355956195892
20
-28.517552137094118
30
0
40
6.1685169999999996
210
-1.7272337110188889e-77
220
-8.7581154020301086e-47
230
1
0
CIRCLE
5
178
100
AcDbEntity
8
0
100
AcDbCircle
10
-109.04659561035118
20
-24.889173852524195
30
0
40
6.1685169999999996
210
-1.7272337110188889e-77
220
-8.7581154020301086e-47
230
1
0
CIRCLE
5
179
100
AcDbEntity
8
0
100
AcDbCircle
10
-93.149631658743388
20
-21.260795567954268
30
-7.8886090522101181e-30
40
6.1685169999999996
210
-1.7272337110188889e-77
220
-8.7581154020301086e-47
230
1
0
CIRCLE
5
180
100
AcDbEntity
8
0
100
AcDbCircle
10
-132.83728084221397
20
-56.777378635304913
30
0
40
6.1685169999999996
210
-1.7272337110188889e-77
220
-8.7581154020301086e-47
230
1
0
CIRCLE
5
181
100
AcDbEntity
8
0
100
AcDbCircle
10
-117.84365960098889
20
-50.368797362562873
30
-7.8886090522101181e-30
40
6.1685169999999996
210
-1.7272337110188889e-77
220
-8.7581154020301086e-47
230
1
0
CIRCLE
5
182
100
AcDbEntity
8
0
100
AcDbCircle
10
-102.8500383597638
20
-43.960216089820833
30
7.8886090522101181e-30
40
6.1685169999999996
210
-1.7272337110188889e-77
220
-8.7581154020301086e-47
230
1
0
CIRCLE
5
183
100
AcDbEntity
8
0
100
AcDbCircle
10
-87.856417118538729
20
-37.551634817078806
30
0
40
6.1685169999999996
210
-1.7272337110188889e-77
220
-8.7581154020301086e-47
230
1
0
CIRCLE
5
184
100
AcDbEntity
8
0
100
AcDbCircle
10
-120.56453866571371
20
-79.583955183024315
30
-7.8886090522101181e-30
40
6.1685169999999996
210
-1.7272337110188889e-77
220
-8.7581154020301086e-47
230
1
0
CIRCLE
5
185
100
AcDbEntity
8
0
100
AcDbCircle
10
-106.95616745835696
20
-70.601147997214341
30
7.8886090522101181e-30
40
6.1685169999999996
210
-1.7272337110188889e-77
220
-8.7581154020301086e-47
230
1
0
CIRCLE
5
186
100
AcDbEntity
8
0
100
AcDbCircle
10
-93.34779625100019
20
-61.618340811404344
30
0
40
6.1685169999999996
210
-1.7272337110188889e-77
220
-8.7581154020301086e-47
230
1
0
CIRCLE
5
187
100
AcDbEntity
8
0
100
AcDbCircle
10
-79.73942504364345
20
-52.635533625594377
30
-7.8886090522101181e-30
40
6.1685169999999996
210
-1.7272337110188889e-77
220
-8.7581154020301086e-47
230
1
0
CIRCLE
5
188
100
AcDbEntity
8
0
100
AcDbCircle
10
-104.41675301566455
20
-99.832637929264877
30
0
40
6.1685169999999996
210
-1.7272337110188889e-77
220
-8.7581154020301086e-47
230
1
0
CIRCLE
5
189
100
AcDbEntity
8
0
100
AcDbCircle
10
-92.631016089785703
20
-88.564319644417267
30
0
40
6.1685169999999996
210
-1.7272337110188889e-77
220
-8.7581154020301086e-47
230
1
0
CIRCLE
5
190
100
AcDbEntity
8
0
100
AcDbCircle
10
-80.845279163906866
20
-77.29600135956963
30
-7.8886090522101181e-30
40
6.1685169999999996
210
-1.7272337110188889e-77
220
-8.7581154020301086e-47
230
1
0
CIRCLE
5
191
100
AcDbEntity
8
0
100
AcDbCircle
10
-69.059542238028001
20
-66.027683074722006
30
0
40
6.1685169999999996
210
-1.7272337110188889e-77
220
-8.7581154020301086e-47
230
1
0
CIRCLE
5
192
100
AcDbEntity
8
0
100
AcDbCircle
10
-84.912927009301427
20
-116.8726175498908
30
0
40
6.1685169999999996
210
-1.7272337110188889e-77
220
-8.7581154020301086e-47
230
1
0
CIRCLE
5
193
100
AcDbEntity
8
0
100
AcDbCircle
10
-75.328627647034864
20
-103.68096118728371
30
7.8886090522101181e-30
40
6.1685169999999996
210
-1.7272337110188889e-77
220
-8.7581154020301086e-47
230
1
0
CIRCLE
5
194
100
AcDbEntity
8
0
100
AcDbCircle
10
-65.744328284768287
20
-90.489304824676609
30
0
40
6.1685169999999996
210
-1.7272337110188889e-77
220
-8.7581154020301086e-47
230
1
0
CIRCLE
5
195
100
AcDbEntity
8
0
100
AcDbCircle
10
-56.160028922501724
20
-77.297648462069503
30
-7.8886090522101181e-30
40
6.1685169999999996
210
-1.7272337110188889e-77
220
-8.7581154020301086e-47
230
1
0
CIRCLE
5
196
100
AcDbEntity
8
0
100
AcDbCircle
10
-62.679929662270268
20
-130.15621507935316
30
0
40
6.1685169999999996
210
-1.7272337110188889e-77
220
-8.7581154020301086e-47
230
1
0
CIRCLE
5
197
100
AcDbEntity
8
0
100
AcDbCircle
10
-55.605115131107013
20
-115.46521132861182
30
0
40
6.1685169999999996
210
-1.7272337110188889e-77
220
-8.7581154020301086e-47
230
1
0
CIRCLE
5
198
100
AcDbEntity
8
0
100
AcDbCircle
10
-48.530300599943772
20
-100.77420757787044
30
7.8886090522101181e-30
40
6.1685169999999996
210
-1.7272337110188889e-77
220
-8.7581154020301086e-47
230
1
0
CIRCLE
5
199
100
AcDbEntity
8
0
100
AcDbCircle
10
-41.455486068780516
20
-86.083203827129068
30
0
40
6.1685169999999996
210
-1.7272337110188889e-77
220
-8.7581154020301086e-47
230
1
0
CIRCLE
5
200
100
AcDbEntity
8
0
100
AcDbCircle
10
-38.432347802675835
20
-139.25648476327464
30
-7.8886090522101181e-30
40
6.1685169999999996
210
-1.7272337110188889e-77
220
-8.7581154020301086e-47
230
1
0
CIRCLE
5
201
100
AcDbEntity
8
0
100
AcDbCircle
10
-34.094408462824269
20
-123.53831457274597
30
0
40
6.1685169999999996
210
-1.7272337110188889e-77
220
-8.7581154020301086e-47
230
1
0
CIRCLE
5
202
100
AcDbEntity
8
0
100
AcDbCircle
10
-29.75646912297271
20
-107.82014438221735
30
-7.8886090522101181e-30
40
6.1685169999999996
210
-1.7272337110188889e-77
220
-8.7581154020301086e-47
230
1
0
CIRCLE
5
203
100
AcDbEntity
8
0
100
AcDbCircle
10
-25.418529783121144
20
-92.101974191688669
30
0
40
6.1685169999999996
210
-1.7272337110188889e-77
220
-8.7581154020301086e-47
230
1
0
CIRCLE
5
204
100
AcDbEntity
8
0
100
AcDbCircle
10
-12.949518662462289
20
-143.88093644628719
30
-7.8886090522101181e-30
40
6.1685169999999996
210
-1.7272337110188889e-77
220
-8.7581154020301086e-47
230
1
0
CIRCLE
5
205
100
AcDbEntity
8
0
100
AcDbCircle
10
-11.487879453573624
20
-127.64079473884833
30
0
40
6.1685169999999996
210
-1.7272337110188889e-77
220
-8.7581154020301086e-47
230
1
0
CIRCLE
5
206
100
AcDbEntity
8
0
100
AcDbCircle
10
-10.026240244684958
20
-111.40065303140949
30
-7.8886090522101181e-30
40
6.1685169999999996
210
-1.7272337110188889e-77
220
-8.7581154020301086e-47
230
1
0
CIRCLE
5
207
100
AcDbEntity
8
0
100
AcDbCircle
10
-8.5646010357962936
20
-95.160511323970638
30
0
40
6.1685169999999996
210
-1.7272337110188889e-77
220
-8.7581154020301086e-47
230
1
0
CIRCLE
5
208
100
AcDbEntity
8
0
100
AcDbCircle
10
12.949518662462236
20
-143.88093644628719
30
-7.8886090522101181e-30
40
6.1685169999999996
210
-1.7272337110188889e-77
220
-8.7581154020301086e-47
230
1
0
CIRCLE
5
209
100
AcDbEntity
8
0
100
AcDbCircle
10
11.487879453573575
20
-127.64079473884833
30
0
40
6.1685169999999996
210
-1.7272337110188889e-77
220
-8.7581154020301086e-47
230
1
0
CIRCLE
5
210
100
AcDbEntity
8
0
100
AcDbCircle
10
10.026240244684914
20
-111.40065303140949
30
-7.8886090522101181e-30
40
6.1685169999999996
210
-1.7272337110188889e-77
220
-8.7581154020301086e-47
230
1
0
CIRCLE
5
211
100
AcDbEntity
8
0
100
AcDbCircle
10
8.5646010357962528
20
-95.160511323970638
30
0
40
6.1685169999999996
210
-1.7272337110188889e-77
220
-8.7581154020301086e-47
230
1
0
CIRCLE
5
212
100
AcDbEntity
8
0
100
AcDbCircle
10
38.432347802675778
20
-139.25648476327467
30
-7.8886090522101181e-30
40
6.1685169999999996
210
-1.7272337110188889e-77
220
-8.7581154020301086e-47
230
1
0
CIRCLE
5
213
100
AcDbEntity
8
0
100
AcDbCircle
10
34.094408462824212
20
-123.538314572746
30
0
40
6.1685169999999996
210
-1.7272337110188889e-77
220
-8.7581154020301086e-47
230
1
0
CIRCLE
5
214
100
AcDbEntity
8
0
100
AcDbCircle
10
29.756469122972661
20
-107.82014438221735
30
-7.8886090522101181e-30
40
6.1685169999999996
210
-1.7272337110188889e-77
220
-8.7581154020301086e-47
230
1
0
CIRCLE
5
215
100
AcDbEntity
8
0
100
AcDbCircle
10
25.418529783121102
20
-92.101974191688697
30
0
40
6.1685169999999996
210
-1.7272337110188889e-77
220
-8.7581154020301086e-47
230
1
0
CIRCLE
5
216
100
AcDbEntity
8
0
100
AcDbCircle
10
62.679929662270212
20
-130.15621507935319
30
0
40
6.1685169999999996
210
-1.7272337110188889e-77
220
-8.7581154020301086e-47
230
1
0
CIRCLE
5
217
100
AcDbEntity
8
0
100
AcDbCircle
10
55.60511513110697
20
-115.46521132861182
30
0
40
6.1685169999999996
210
-1.7272337110188889e-77
220
-8.7581154020301086e-47
230
1
0
CIRCLE
5
218
100
AcDbEntity
8
0
100
AcDbCircle
10
48.530300599943729
20
-100.77420757787046
30
7.8886090522101181e-30
40
6.1685169999999996
210
-1.7272337110188889e-77
220
-8.7581154020301086e-47
230
1
0
CIRCLE
5
219
100
AcDbEntity
8
0
100
AcDbCircle
10
41.455486068780473
20
-86.083203827129068
30
0
40
6.1685169999999996
210
-1.7272337110188889e-77
220
-8.7581154020301086e-47
230
1
0
CIRCLE
5
220
100
AcDbEntity
8
0
100
AcDbCircle
10
84.912927009301384
20
-116.87261754989082
30
0
40
6.1685169999999996
210
-1.7272337110188889e-77
220
-8.7581154020301086e-47
230
1
0
CIRCLE
5
221
100
AcDbEntity
8
0
100
AcDbCircle
10
75.328627647034821
20
-103.68096118728373
30
7.8886090522101181e-30
40
6.1685169999999996
210
-1.7272337110188889e-77
220
-8.7581154020301086e-47
230
1
0
CIRCLE
5
222
100
AcDbEntity
8
0
100
AcDbCircle
10
65.744328284768244
20
-90.489304824676609
30
0
40
6.1685169999999996
210
-1.7272337110188889e-77
220
-8.7581154020301086e-47
230
1
0
CIRCLE
5
223
100
AcDbEntity
8
0
100
AcDbCircle
10
56.160028922501688
20
-77.297648462069503
30
-7.8886090522101181e-30
40
6.1685169999999996
210
-1.7272337110188889e-77
220
-8.7581154020301086e-47
230
1
0
CIRCLE
5
224
100
AcDbEntity
8
0
100
AcDbCircle
10
104.41675301566451
20
-99.832637929264919
30
0
40
6.1685169999999996
210
-1.7272337110188889e-77
220
-8.7581154020301086e-47
230
1
0
CIRCLE
5
225
100
AcDbEntity
8
0
100
AcDbCircle
10
92.631016089785703
20
-88.564319644417282
30
0
40
6.1685169999999996
210
-1.7272337110188889e-77
220
-8.7581154020301086e-47
230
1
0
CIRCLE
5
226
100
AcDbEntity
8
0
100
AcDbCircle
10
80.845279163906838
20
-77.296001359569658
30
-7.8886090522101181e-30
40
6.1685169999999996
210
-1.7272337110188889e-77
220
-8.7581154020301086e-47
230
1
0
CIRCLE
5
227
100
AcDbEntity
8
0
100
AcDbCircle
10
69.059542238027973
20
-66.027683074722034
30
0
40
6.1685169999999996
210
-1.7272337110188889e-77
220
-8.7581154020301086e-47
230
1
0
CIRCLE
5
228
100
AcDbEntity
8
0
100
AcDbCircle
10
120.56453866571367
20
-79.583955183024358
30
-7.8886090522101181e-30
40
6.1685169999999996
210
-1.7272337110188889e-77
220
-8.7581154020301086e-47
230
1
0
CIRCLE
5
229
100
AcDbEntity
8
0
100
AcDbCircle
10
106.95616745835693
20
-70.601147997214355
30
7.8886090522101181e-30
40
6.1685169999999996
210
-1.7272337110188889e-77
220
-8.7581154020301086e-47
230
1
0
CIRCLE
5
230
100
AcDbEntity
8
0
100
AcDbCircle
10
93.347796251000148
20
-61.618340811404373
30
0
40
6.1685169999999996
210
-1.7272337110188889e-77
220
-8.7581154020301086e-47
230
1
0
CIRCLE
5
231
100
AcDbEntity
8
0
100
AcDbCircle
10
79.739425043643422
20
-52.635533625594391
30
-7.8886090522101181e-30
40
6.1685169999999996
210
-1.7272337110188889e-77
220
-8.7581154020301086e-47
230
1
0
CIRCLE
5
232
100
AcDbEntity
8
0
100
AcDbCircle
10
132.83728084221394
20
-56.777378635304942
30
0
40
6.1685169999999996
210
-1.7272337110188889e-77
220
-8.7581154020301086e-47
230
1
0
CIRCLE
5
233
100
AcDbEntity
8
0
100
AcDbCircle
10
117.84365960098884
20
-50.368797362562894
30
-7.8886090522101181e-30
40
6.1685169999999996
210
-1.7272337110188889e-77
220
-8.7581154020301086e-47
230
1
0
CIRCLE
5
234
100
AcDbEntity
8
0
100
AcDbCircle
10
102.8500383597638
20
-43.960216089820861
30
7.8886090522101181e-30
40
6.1685169999999996
210
-1.7272337110188889e-77
220
-8.7581154020301086e-47
230
1
0
CIRCLE
5
235
100
AcDbEntity
8
0
100
AcDbCircle
10
87.856417118538701
20
-37.551634817078821
30
0
40
6.1685169999999996
210
-1.7272337110188889e-77
220
-8.7581154020301086e-47
230
1
0
CIRCLE
5
236
100
AcDbEntity
8
0
100
AcDbCircle
10
140.84052351356667
20
-32.145930421664076
30
0
40
6.1685169999999996
210
-1.7272337110188889e-77
220
-8.7581154020301086e-47
230
1
0
CIRCLE
5
237
100
AcDbEntity
8
0
100
AcDbCircle
10
124.94355956195892
20
-28.517552137094153
30
0
40
6.1685169999999996
210
-1.7272337110188889e-77
220
-8.7581154020301086e-47
230
1
0
CIRCLE
5
238
100
AcDbEntity
8
0
100
AcDbCircle
10
109.04659561035115
20
-24.889173852524223
30
0
40
6.1685169999999996
210
-1.7272337110188889e-77
220
-8.7581154020301086e-47
230
1
0
CIRCLE
5
239
100
AcDbEntity
8
0
100
AcDbCircle
10
93.149631658743345
20
-21.26079556795429
30
-7.8886090522101181e-30
40
6.1685169999999996
210
-1.7272337110188889e-77
220
-8.7581154020301086e-47
230
1
0
CIRCLE
5
240
100
AcDbEntity
8
0
100
AcDbCircle
10
144.31703587522466
20
-6.4812855545112749
30
0
40
6.1685169999999996
210
-1.7272337110188889e-77
220
-8.7581154020301086e-47
230
1
0
CIRCLE
5
241
100
AcDbEntity
8
0
100
AcDbCircle
10
128.02767071470439
20
-5.7497293216191316
30
0
40
6.1685169999999996
210
-1.7272337110188889e-77
220
-8.7581154020301086e-47
230
1
0
CIRCLE
5
242
100
AcDbEntity
8
0
100
AcDbCircle
10
111.73830555418405
20
-5.0181730887269884
30
0
40
6.1685169999999996
210
-1.7272337110188889e-77
220
-8.7581154020301086e-47
230
1
0
CIRCLE
5
243
100
AcDbEntity
8
0
100
AcDbCircle
10
95.448940393663761
20
-4.2866168558348443
30
0
40
6.1685169999999996
210
-1.7272337110188889e-77
220
-8.7581154020301086e-47
230
1
0
CIRCLE
5
244
100
AcDbEntity
8
0
100
AcDbCircle
10
143.15507995940027
20
19.391673163183039
30
0
40
6.1685169999999996
210
-1.7272337110188889e-77
220
-8.7581154020301086e-47
230
1
0
CIRCLE
5
245
100
AcDbEntity
8
0
100
AcDbCircle
10
126.99686718916087
20
17.202894525145769
30
0
40
6.1685169999999996
210
-1.7272337110188889e-77
220
-8.7581154020301086e-47
230
1
0
CIRCLE
5
246
100
AcDbEntity
8
0
100
AcDbCircle
10
110.83865441892151
20
15.014115887108499
30
0
40
6.1685169999999996
210
-1.7272337110188889e-77
220
-8.7581154020301086e-47
230
1
0
CIRCLE
5
247
100
AcDbEntity
8
0
100
AcDbCircle
10
94.680441648682105
20
12.825337249071232
30
0
40
6.1685169999999996
210
-1.7272337110188889e-77
220
-8.7581154020301086e-47
230
1
0
CIRCLE
5
248
100
AcDbEntity
8
0
100
AcDbCircle
10
137.39200198528863
20
44.64136754989083
30
0
40
6.1685169999999996
210
-1.7272337110188889e-77
220
-8.7581154020301086e-47
230
1
0
CIRCLE
5
249
100
AcDbEntity
8
0
100
AcDbCircle
10
121.88427985878739
20
39.602603187283719
30
0
40
6.1685169999999996
210
-1.7272337110188889e-77
220
-8.7581154020301086e-47
230
1
0
CIRCLE
5
250
100
AcDbEntity
8
0
100
AcDbCircle
10
106.37655773228613
20
34.563838824676616
30
0
40
6.1685169999999996
210
-1.7272337110188889e-77
220
-8.7581154020301086e-47
230
1
0
CIRCLE
5
251
100
AcDbEntity
8
0
100
AcDbCircle
10
90.868835605784881
20
29.525074462069519
30
0
40
6.1685169999999996
210
-1.7272337110188889e-77
220
-8.7581154020301086e-47
230
1
0
CIRCLE
5
252
100
AcDbEntity
8
0
100
AcDbCircle
10
127.21303202085402
20
68.456251652505543
30
0
40
6.1685169999999996
210
-1.7272337110188889e-77
220
-8.7581154020301086e-47
230
1
0
CIRCLE
5
253
100
AcDbEntity
8
0
100
AcDbCircle
10
112.85423148703295
20
60.729451597851927
30
0
40
6.1685169999999996
210
-1.7272337110188889e-77
220
-8.7581154020301086e-47
230
1
0
CIRCLE
5
254
100
AcDbEntity
8
0
100
AcDbCircle
10
98.495430953211837
20
53.002651543198319
30
0
40
6.1685169999999996
210
-1.7272337110188889e-77
220
-8.7581154020301086e-47
230
1
0
CIRCLE
5
255
100
AcDbEntity
8
0
100
AcDbCircle
10
84.136630419390769
20
45.27585148854471
30
0
40
6.1685169999999996
210
-1.7272337110188889e-77
220
-8.7581154020301086e-47
230
1
0
CIRCLE
5
256
100
AcDbEntity
8
0
100
AcDbCircle
10
112.94533053603779
20
90.070895501017276
30
0
40
6.1685169999999996
210
-1.7272337110188889e-77
220
-8.7581154020301086e-47
230
1
0
CIRCLE
5
257
100
AcDbEntity
8
0
100
AcDbCircle
10
100.19695525851429
20
79.904405465705977
30
0
40
6.1685169999999996
210
-1.7272337110188889e-77
220
-8.7581154020301086e-47
230
1
0
CIRCLE
5
258
100
AcDbEntity
8
0
100
AcDbCircle
10
87.448579980990814
20
69.737915430394679
30
0
40
6.1685169999999996
210
-1.7272337110188889e-77
220
-8.7581154020301086e-47
230
1
0
CIRCLE
5
259
100
AcDbEntity
8
0
100
AcDbCircle
10
74.700204703467335
20
59.571425395083388
30
0
40
6.1685169999999996
210
-1.7272337110188889e-77
220
-8.7581154020301086e-47
230
1
0
CIRCLE
5
260
100
AcDbEntity
8
0
100
AcDbCircle
10
95.047473196065766
20
108.79058665754663
30
0
40
6.1685169999999996
210
-1.7272337110188889e-77
220
-8.7581154020301086e-47
230
1
0
CIRCLE
5
261
100
AcDbEntity
8
0
100
AcDbCircle
10
84.319266445657604
20
96.511165996328415
30
0
40
6.1685169999999996
210
-1.7272337110188889e-77
220
-8.7581154020301086e-47
230
1
0
CIRCLE
5
262
100
AcDbEntity
8
0
100
AcDbCircle
10
73.591059695249456
20
84.23174533511019
30
0
40
6.1685169999999996
210
-1.7272337110188889e-77
220
-8.7581154020301086e-47
230
1
0
CIRCLE
5
263
100
AcDbEntity
8
0
100
AcDbCircle
10
62.862852944841315
20
71.95232467389198
30
0
40
6.1685169999999996
210
-1.7272337110188889e-77
220
-8.7581154020301086e-47
230
1
0
CIRCLE
5
264
100
AcDbEntity
8
0
100
AcDbCircle
10
74.094711862250747
20
124.01365884570956
30
0
40
6.1685169999999996
210
-1.7272337110188889e-77
220
-8.7581154020301086e-47
230
1
0
CIRCLE
5
265
100
AcDbEntity
8
0
100
AcDbCircle
10
65.731487031113957
20
110.01597824217697
30
0
40
6.1685169999999996
210
-1.7272337110188889e-77
220
-8.7581154020301086e-47
230
1
0
CIRCLE
5
266
100
AcDbEntity
8
0
100
AcDbCircle
10
57.368262199977174
20
96.01829763864437
30
0
40
6.1685169999999996
210
-1.7272337110188889e-77
220
-8.7581154020301086e-47
230
1
0
CIRCLE
5
267
100
AcDbEntity
8
0
100
AcDbCircle
10
49.005037368840391
20
82.020617035111769
30
0
40
6.1685169999999996
210
-1.7272337110188889e-77
220
-8.7581154020301086e-47
230
1
0
CIRCLE
5
268
100
AcDbEntity
8
0
100
AcDbCircle
10
50.760485523850996
20
135.25082999979301
30
0
40
6.1685169999999996
210
-1.7272337110188889e-77
220
-8.7581154020301086e-47
230
1
0
CIRCLE
5
269
100
AcDbEntity
8
0
100
AcDbCircle
10
45.031043539342619
20
119.98478642587355
30
0
40
6.1685169999999996
210
-1.7272337110188889e-77
220
-8.7581154020301086e-47
230
1
0
CIRCLE
5
270
100
AcDbEntity
8
0
100
AcDbCircle
10
39.301601554834249
20
104.71874285195405
30
0
40
6.1685169999999996
210
-1.7272337110188889e-77
220
-8.7581154020301086e-47
230
1
0
CIRCLE
5
271
100
AcDbEntity
8
0
100
AcDbCircle
10
33.572159570325873
20
89.452699278034572
30
0
40
6.1685169999999996
210
-1.7272337110188889e-77
220
-8.7581154020301086e-47
230
1
0
CIRCLE
5
272
100
AcDbEntity
8
0
100
AcDbCircle
10
25.794775414848068
20
142.14092819292952
30
0
40
6.1685169999999996
210
-1.7272337110188889e-77
220
-8.7581154020301086e-47
230
1
0
CIRCLE
5
273
100
AcDbEntity
8
0
100
AcDbCircle
10
22.883265256550779
20
126.09718485003143
30
0
40
6.1685169999999996
210
-1.7272337110188889e-77
220
-8.7581154020301086e-47
230
1
0
CIRCLE
5
274
100
AcDbEntity
8
0
100
AcDbCircle
10
19.971755098253482
20
110.05344150713333
30
0
40
6.1685169999999996
210
-1.7272337110188889e-77
220
-8.7581154020301086e-47
230
1
0
CIRCLE
5
275
100
AcDbEntity
8
0
100
AcDbCircle
10
17.060244939956185
20
94.009698164235232
30
0
40
6.1685169999999996
210
-1.7272337110188889e-77
220
-8.7581154020301086e-47
230
1
0
CIRCLE
5
276
100
AcDbEntity
8
0
100
AcDbCircle
10
-8.8817841970012523e-15
20
1.332267629550188e-14
30
0
40
152.40000000000001
210
-1.7272337110188889e-77
220
-8.7581154020301086e-47
230
1
0
ENDSEC
0
SECTION
2
OBJECTS
0
DICTIONARY
5
C
100
AcDbDictionary
3
ACAD_GROUP
350
D
3
ACAD_MLINESTYLE
350
17
0
DICTIONARY
5
D
100
AcDbDictionary
0
DICTIONARY
5
1A
330
C
100
AcDbDictionary
0
DICTIONARY
5
17
100
AcDbDictionary
0
ENDSEC
0
EOF
